<svg width="138" height="34" viewBox="0 0 138 34" fill="none" xmlns="http://www.w3.org/2000/svg">
<g clip-path="url(#clip0_7_17)">
<path d="M13.5859 27.7377V33.7596H12.2772L12.2384 27.7764C5.11631 27.5084 0 21.7292 0 13.8886C0 6.04726 5.31062 0 12.7023 0C20.0941 0 25.4047 5.85512 25.4047 13.8886C25.4047 21.9221 20.5517 27.3542 13.5914 27.7385H13.5851L13.5859 27.7377ZM13.5859 13.9266V21.7679C19.7403 21.4991 24.058 18.2509 24.058 13.8499C24.058 9.44884 19.3208 5.89386 12.7023 5.89386C6.0839 5.89386 1.34669 9.2567 1.34669 13.8499C1.34669 18.443 5.85152 21.6145 12.1995 21.8067L12.1226 13.9266H13.5859ZM53.5741 0.423023V16.528C53.5741 23.1066 49.224 27.7764 43.0631 27.7764C36.9015 27.7764 32.4808 22.9532 32.4808 16.3746V0.422233H33.9448V15.6107C33.9448 18.8969 37.7914 21.8051 43.0251 21.8051C48.258 21.8051 52.1061 19.0511 52.1061 15.7578V0.423023H53.5741ZM61.3402 0.384279H73.2693C77.8899 0.384279 81.2733 3.83093 81.2733 8.41777C81.2733 11.288 79.4238 13.5423 76.6527 14.465V14.6184C79.5784 15.0802 81.7309 17.412 81.7309 20.7044C81.7309 24.6057 78.9598 27.3985 74.9578 27.3985H61.3339V0.384279H61.3402ZM74.1972 13.4972C76.9683 13.4972 79.0502 11.5181 79.0502 9.98651C79.0502 7.40567 76.9747 5.96977 74.0489 5.96977H62.8098V13.4972H74.2028H74.1972ZM75.4281 21.7292C77.736 21.7292 79.1985 20.8515 79.1985 18.5134C79.1985 17.2325 77.7352 16.0211 75.5828 16.0211H62.8035V21.73L75.4281 21.7292ZM107.374 21.7292V27.3921H89.1298V0.384279H107.065V5.97056H90.5922V13.9645H104.449V15.4581H90.5922V21.7292H107.374ZM128.842 19.4749H117.448L114.445 27.3913H112.904L123.222 0.384279H125.916L137.922 27.3921H132.225L128.836 19.4741L128.842 19.4749ZM128.191 17.982L122.958 5.70093H122.726L118.027 17.9805H128.191V17.982Z" fill="#00205F"/>
</g>
<defs>
<clipPath id="clip0_7_17">
<rect width="138" height="34" fill="white"/>
</clipPath>
</defs>
</svg>
