<svg width="21" height="14" viewBox="0 0 21 14" fill="none" xmlns="http://www.w3.org/2000/svg">
<path d="M6.64645 13.3535C6.84171 13.5488 7.15829 13.5488 7.35355 13.3535C7.54882 13.1583 7.54882 12.8417 7.35355 12.6464L6.64645 13.3535ZM7.35355 12.6464L1.35355 6.64642L0.646446 7.35352L6.64645 13.3535L7.35355 12.6464Z" fill="#00205F"/>
<path d="M7.35348 0.646446C7.54874 0.451184 7.86532 0.451184 8.06058 0.646446C8.25585 0.841708 8.25585 1.15829 8.06058 1.35355L7.35348 0.646446ZM1.35348 6.64645L7.35348 0.646446L8.06058 1.35355L2.06058 7.35355L1.35348 6.64645Z" fill="#00205F"/>
<path d="M20.3535 7.64642C20.6297 7.64642 20.8535 7.42257 20.8535 7.14642C20.8535 6.87028 20.6297 6.64642 20.3535 6.64642V7.64642ZM1.35352 7.64642L20.3535 7.64642V6.64642L1.35352 6.64642V7.64642Z" fill="#02205F"/>
</svg>
