<svg width="21" height="14" viewBox="0 0 21 14" fill="none" xmlns="http://www.w3.org/2000/svg">
<path d="M14.7071 0.646447C14.5118 0.451184 14.1953 0.451184 14 0.646447C13.8047 0.841709 13.8047 1.15829 14 1.35355L14.7071 0.646447ZM14 1.35355L20 7.35355L20.7071 6.64645L14.7071 0.646447L14 1.35355Z" fill="#00205F"/>
<path d="M14 13.3535C13.8047 13.5488 13.4882 13.5488 13.2929 13.3535C13.0976 13.1583 13.0976 12.8417 13.2929 12.6464L14 13.3535ZM20 7.35352L14 13.3535L13.2929 12.6464L19.2929 6.64642L20 7.35352Z" fill="#00205F"/>
<path d="M1 6.35355C0.723858 6.35355 0.5 6.5774 0.5 6.85355C0.5 7.12969 0.723858 7.35355 1 7.35355V6.35355ZM20 6.35355L1 6.35355V7.35355L20 7.35355V6.35355Z" fill="#02205F"/>
</svg>
